<svg width="159" height="38" viewBox="0 0 159 38" fill="none" xmlns="http://www.w3.org/2000/svg">
<path d="M19.9414 27.6H8.24142L6.00942 33H0.0334219L11.2654 7.8H17.0254L28.2934 33H22.1734L19.9414 27.6ZM18.1054 23.172L14.1094 13.524L10.1134 23.172H18.1054ZM49.6724 13.632V33H44.3444V30.696C43.6004 31.536 42.7124 32.184 41.6804 32.64C40.6484 33.072 39.5324 33.288 38.3324 33.288C35.7884 33.288 33.7724 32.556 32.2844 31.092C30.7964 29.628 30.0524 27.456 30.0524 24.576V13.632H35.6684V23.748C35.6684 26.868 36.9764 28.428 39.5924 28.428C40.9364 28.428 42.0164 27.996 42.8324 27.132C43.6484 26.244 44.0564 24.936 44.0564 23.208V13.632H49.6724ZM61.3912 33.288C59.7832 33.288 58.2112 33.096 56.6752 32.712C55.1392 32.304 53.9152 31.8 53.0032 31.2L54.8752 27.168C55.7392 27.72 56.7832 28.176 58.0072 28.536C59.2312 28.872 60.4312 29.04 61.6072 29.04C63.9832 29.04 65.1712 28.452 65.1712 27.276C65.1712 26.724 64.8472 26.328 64.1992 26.088C63.5512 25.848 62.5552 25.644 61.2112 25.476C59.6272 25.236 58.3192 24.96 57.2872 24.648C56.2552 24.336 55.3552 23.784 54.5872 22.992C53.8432 22.2 53.4712 21.072 53.4712 19.608C53.4712 18.384 53.8192 17.304 54.5152 16.368C55.2352 15.408 56.2672 14.664 57.6112 14.136C58.9792 13.608 60.5872 13.344 62.4352 13.344C63.8032 13.344 65.1592 13.5 66.5032 13.812C67.8712 14.1 68.9992 14.508 69.8872 15.036L68.0152 19.032C66.3112 18.072 64.4512 17.592 62.4352 17.592C61.2352 17.592 60.3352 17.76 59.7352 18.096C59.1352 18.432 58.8352 18.864 58.8352 19.392C58.8352 19.992 59.1592 20.412 59.8072 20.652C60.4552 20.892 61.4872 21.12 62.9032 21.336C64.4872 21.6 65.7832 21.888 66.7912 22.2C67.7992 22.488 68.6752 23.028 69.4192 23.82C70.1632 24.612 70.5352 25.716 70.5352 27.132C70.5352 28.332 70.1752 29.4 69.4552 30.336C68.7352 31.272 67.6792 32.004 66.2872 32.532C64.9192 33.036 63.2872 33.288 61.3912 33.288ZM86.4922 32.064C85.9402 32.472 85.2562 32.784 84.4402 33C83.6482 33.192 82.8082 33.288 81.9202 33.288C79.6162 33.288 77.8282 32.7 76.5562 31.524C75.3082 30.348 74.6842 28.62 74.6842 26.34V18.384H71.6962V14.064H74.6842V9.348H80.3002V14.064H85.1242V18.384H80.3002V26.268C80.3002 27.084 80.5042 27.72 80.9122 28.176C81.3442 28.608 81.9442 28.824 82.7122 28.824C83.6002 28.824 84.3562 28.584 84.9802 28.104L86.4922 32.064ZM108.019 23.388C108.019 23.46 107.983 23.964 107.911 24.9H93.2591C93.5231 26.1 94.1471 27.048 95.1311 27.744C96.1151 28.44 97.3391 28.788 98.8031 28.788C99.8111 28.788 100.699 28.644 101.467 28.356C102.259 28.044 102.991 27.564 103.663 26.916L106.651 30.156C104.827 32.244 102.163 33.288 98.6591 33.288C96.4751 33.288 94.5431 32.868 92.8631 32.028C91.1831 31.164 89.8871 29.976 88.9751 28.464C88.0631 26.952 87.6071 25.236 87.6071 23.316C87.6071 21.42 88.0511 19.716 88.9391 18.204C89.8511 16.668 91.0871 15.48 92.6471 14.64C94.2311 13.776 95.9951 13.344 97.9391 13.344C99.8351 13.344 101.551 13.752 103.087 14.568C104.623 15.384 105.823 16.56 106.687 18.096C107.575 19.608 108.019 21.372 108.019 23.388ZM97.9751 17.592C96.7031 17.592 95.6351 17.952 94.7711 18.672C93.9071 19.392 93.3791 20.376 93.1871 21.624H102.727C102.535 20.4 102.007 19.428 101.143 18.708C100.279 17.964 99.2231 17.592 97.9751 17.592ZM117.122 16.188C117.794 15.252 118.694 14.544 119.822 14.064C120.974 13.584 122.294 13.344 123.782 13.344V18.528C123.158 18.48 122.738 18.456 122.522 18.456C120.914 18.456 119.654 18.912 118.742 19.824C117.83 20.712 117.374 22.056 117.374 23.856V33H111.758V13.632H117.122V16.188ZM134.828 13.344C137.828 13.344 140.132 14.064 141.74 15.504C143.348 16.92 144.152 19.068 144.152 21.948V33H138.896V30.588C137.84 32.388 135.872 33.288 132.992 33.288C131.504 33.288 130.208 33.036 129.104 32.532C128.024 32.028 127.196 31.332 126.62 30.444C126.044 29.556 125.756 28.548 125.756 27.42C125.756 25.62 126.428 24.204 127.772 23.172C129.14 22.14 131.24 21.624 134.072 21.624H138.536C138.536 20.4 138.164 19.464 137.42 18.816C136.676 18.144 135.56 17.808 134.072 17.808C133.04 17.808 132.02 17.976 131.012 18.312C130.028 18.624 129.188 19.056 128.492 19.608L126.476 15.684C127.532 14.94 128.792 14.364 130.256 13.956C131.744 13.548 133.268 13.344 134.828 13.344ZM134.396 29.508C135.356 29.508 136.208 29.292 136.952 28.86C137.696 28.404 138.224 27.744 138.536 26.88V24.9H134.684C132.38 24.9 131.228 25.656 131.228 27.168C131.228 27.888 131.504 28.464 132.056 28.896C132.632 29.304 133.412 29.508 134.396 29.508Z" fill="white"/>
<circle cx="153" cy="6" r="5.5" stroke="#39B9EF"/>
</svg>
